<svg width="279" height="16" viewBox="0 0 279 16" fill="none" xmlns="http://www.w3.org/2000/svg">
<path d="M6.592 12.08C5.52533 12.08 4.54933 11.824 3.664 11.312C2.77867 10.8 2.08 10.1067 1.568 9.232C1.06667 8.34667 0.816 7.36533 0.816 6.288C0.816 5.21067 1.06667 4.23467 1.568 3.36C2.08 2.48533 2.77333 1.79733 3.648 1.296C4.53333 0.784 5.51467 0.528 6.592 0.528C7.66933 0.528 8.64533 0.784 9.52 1.296C10.4053 1.79733 11.0987 2.49067 11.6 3.376C12.112 4.25067 12.368 5.22133 12.368 6.288C12.368 7.36533 12.112 8.34667 11.6 9.232C11.0987 10.1067 10.4053 10.8 9.52 11.312C8.63467 11.824 7.65867 12.08 6.592 12.08ZM6.592 11.36C7.53067 11.36 8.37867 11.1413 9.136 10.704C9.904 10.256 10.5067 9.648 10.944 8.88C11.3813 8.10133 11.6 7.23733 11.6 6.288C11.6 5.34933 11.3813 4.496 10.944 3.728C10.5067 2.96 9.904 2.35733 9.136 1.92C8.37867 1.472 7.53067 1.248 6.592 1.248C5.65333 1.248 4.8 1.472 4.032 1.92C3.264 2.35733 2.66133 2.96 2.224 3.728C1.78667 4.496 1.568 5.34933 1.568 6.288C1.568 7.23733 1.78667 8.10133 2.224 8.88C2.66133 9.648 3.264 10.256 4.032 10.704C4.8 11.1413 5.65333 11.36 6.592 11.36ZM6.72 9.792C5.71733 9.792 4.91733 9.47733 4.32 8.848C3.73333 8.21867 3.44 7.36533 3.44 6.288C3.44 5.232 3.73333 4.38933 4.32 3.76C4.91733 3.13067 5.71733 2.816 6.72 2.816C7.17867 2.816 7.62133 2.896 8.048 3.056C8.47467 3.20533 8.83733 3.41867 9.136 3.696L8.752 4.56C8.13333 4.05867 7.488 3.808 6.816 3.808C6.13333 3.808 5.60533 4.02133 5.232 4.448C4.86933 4.87467 4.688 5.488 4.688 6.288C4.688 7.09867 4.86933 7.72267 5.232 8.16C5.60533 8.58667 6.13333 8.8 6.816 8.8C7.488 8.8 8.13333 8.54933 8.752 8.048L9.136 8.912C8.82667 9.18933 8.45867 9.408 8.032 9.568C7.60533 9.71733 7.168 9.792 6.72 9.792ZM22.3678 12.128C20.5864 12.128 19.1678 11.648 18.1118 10.688L18.6078 9.68C19.1731 10.16 19.7491 10.5013 20.3358 10.704C20.9224 10.9067 21.6051 11.008 22.3838 11.008C23.3011 11.008 24.0051 10.832 24.4958 10.48C24.9971 10.1173 25.2478 9.61067 25.2478 8.96C25.2478 8.576 25.1251 8.26667 24.8798 8.032C24.6451 7.78667 24.3304 7.59467 23.9358 7.456C23.5518 7.31733 23.0344 7.17333 22.3838 7.024C21.5091 6.832 20.7891 6.624 20.2238 6.4C19.6584 6.176 19.1998 5.856 18.8478 5.44C18.4958 5.01333 18.3198 4.45867 18.3198 3.776C18.3198 3.12533 18.4904 2.55467 18.8318 2.064C19.1731 1.56267 19.6531 1.17333 20.2718 0.896C20.9011 0.618666 21.6318 0.48 22.4638 0.48C23.2531 0.48 23.9891 0.602666 24.6718 0.848C25.3544 1.09333 25.9304 1.45067 26.3998 1.92L25.8878 2.928C25.3544 2.46933 24.8104 2.13333 24.2558 1.92C23.7118 1.70667 23.1144 1.6 22.4638 1.6C21.5784 1.6 20.8851 1.792 20.3838 2.176C19.8824 2.54933 19.6318 3.06667 19.6318 3.728C19.6318 4.304 19.8504 4.736 20.2878 5.024C20.7251 5.312 21.3971 5.56267 22.3038 5.776C23.2851 6.01067 24.0531 6.22933 24.6078 6.432C25.1731 6.624 25.6424 6.92267 26.0158 7.328C26.3891 7.72267 26.5758 8.25067 26.5758 8.912C26.5758 9.552 26.4051 10.1173 26.0638 10.608C25.7224 11.088 25.2318 11.4613 24.5918 11.728C23.9624 11.9947 23.2211 12.128 22.3678 12.128ZM32.5765 3.76C34.5072 3.76 35.4725 4.82133 35.4725 6.944V12H34.1765V7.008C34.1765 6.26133 34.0272 5.71733 33.7285 5.376C33.4298 5.024 32.9605 4.848 32.3205 4.848C31.5738 4.848 30.9765 5.07733 30.5285 5.536C30.0805 5.99467 29.8565 6.61333 29.8565 7.392V12H28.5605V0.223999H29.8565V5.264C30.1125 4.77333 30.4752 4.4 30.9445 4.144C31.4245 3.888 31.9685 3.76 32.5765 3.76ZM41.2479 12.112C40.4905 12.112 39.8239 11.9413 39.2479 11.6C38.6719 11.2587 38.2239 10.7733 37.9039 10.144C37.5945 9.51467 37.4399 8.77867 37.4399 7.936C37.4399 7.09333 37.5945 6.35733 37.9039 5.728C38.2239 5.09867 38.6719 4.61333 39.2479 4.272C39.8239 3.93067 40.4905 3.76 41.2479 3.76C42.0052 3.76 42.6719 3.93067 43.2479 4.272C43.8239 4.61333 44.2665 5.09867 44.5759 5.728C44.8959 6.35733 45.0559 7.09333 45.0559 7.936C45.0559 8.77867 44.8959 9.51467 44.5759 10.144C44.2665 10.7733 43.8239 11.2587 43.2479 11.6C42.6719 11.9413 42.0052 12.112 41.2479 12.112ZM41.2479 11.04C42.0479 11.04 42.6612 10.7787 43.0879 10.256C43.5145 9.72267 43.7279 8.94933 43.7279 7.936C43.7279 6.95467 43.5092 6.19733 43.0719 5.664C42.6345 5.12 42.0265 4.848 41.2479 4.848C40.4585 4.848 39.8452 5.12 39.4079 5.664C38.9705 6.19733 38.7519 6.95467 38.7519 7.936C38.7519 8.94933 38.9652 9.72267 39.3919 10.256C39.8292 10.7787 40.4479 11.04 41.2479 11.04ZM53.8121 7.936H47.9081C47.9188 8.96 48.1535 9.73333 48.6121 10.256C49.0815 10.7787 49.7588 11.04 50.6441 11.04C51.5828 11.04 52.4468 10.7253 53.2361 10.096L53.6681 11.04C53.3161 11.3707 52.8628 11.632 52.3081 11.824C51.7641 12.016 51.2041 12.112 50.6281 12.112C49.3695 12.112 48.3828 11.744 47.6681 11.008C46.9535 10.2613 46.5961 9.24267 46.5961 7.952C46.5961 7.13067 46.7561 6.40533 47.0761 5.776C47.3961 5.136 47.8441 4.64 48.4201 4.288C48.9961 3.936 49.6521 3.76 50.3881 3.76C51.4548 3.76 52.2921 4.112 52.9001 4.816C53.5081 5.50933 53.8121 6.46933 53.8121 7.696V7.936ZM50.4041 4.768C49.7321 4.768 49.1828 4.97067 48.7561 5.376C48.3401 5.78133 48.0735 6.352 47.9561 7.088H52.6441C52.5801 6.33067 52.3561 5.75467 51.9721 5.36C51.5988 4.96533 51.0761 4.768 50.4041 4.768ZM58.4993 12.112C57.1446 12.112 56.0726 11.7653 55.2833 11.072L55.7153 10.112C56.1526 10.4533 56.5953 10.6987 57.0433 10.848C57.4913 10.9973 57.9926 11.072 58.5473 11.072C59.1553 11.072 59.6139 10.9707 59.9233 10.768C60.2433 10.5547 60.4033 10.2507 60.4033 9.856C60.4033 9.536 60.2966 9.28 60.0833 9.088C59.8699 8.896 59.5179 8.74667 59.0273 8.64L57.6673 8.32C56.9953 8.17067 56.4726 7.904 56.0993 7.52C55.7366 7.136 55.5553 6.67733 55.5553 6.144C55.5553 5.44 55.8379 4.86933 56.4033 4.432C56.9686 3.984 57.7153 3.76 58.6432 3.76C59.2086 3.76 59.7419 3.85067 60.2433 4.032C60.7446 4.21333 61.1659 4.47467 61.5073 4.816L61.0753 5.76C60.3179 5.13067 59.5073 4.816 58.6432 4.816C58.0673 4.816 57.6193 4.928 57.2993 5.152C56.9899 5.36533 56.8353 5.66933 56.8353 6.064C56.8353 6.39467 56.9313 6.656 57.1233 6.848C57.3259 7.04 57.6459 7.18933 58.0833 7.296L59.4433 7.632C60.1899 7.80267 60.7446 8.06933 61.1073 8.432C61.4699 8.784 61.6513 9.248 61.6513 9.824C61.6513 10.5173 61.3686 11.072 60.8033 11.488C60.2379 11.904 59.4699 12.112 58.4993 12.112ZM70.6481 3.968L67.1761 12H65.9441L62.5201 3.968H63.8801L66.6001 10.592L69.3521 3.968H70.6481ZM78.7184 7.936H72.8144C72.825 8.96 73.0597 9.73333 73.5184 10.256C73.9877 10.7787 74.665 11.04 75.5504 11.04C76.489 11.04 77.353 10.7253 78.1424 10.096L78.5744 11.04C78.2224 11.3707 77.769 11.632 77.2144 11.824C76.6704 12.016 76.1104 12.112 75.5344 12.112C74.2757 12.112 73.289 11.744 72.5744 11.008C71.8597 10.2613 71.5024 9.24267 71.5024 7.952C71.5024 7.13067 71.6624 6.40533 71.9824 5.776C72.3024 5.136 72.7504 4.64 73.3264 4.288C73.9024 3.936 74.5584 3.76 75.2944 3.76C76.361 3.76 77.1984 4.112 77.8064 4.816C78.4144 5.50933 78.7184 6.46933 78.7184 7.696V7.936ZM75.3104 4.768C74.6384 4.768 74.089 4.97067 73.6624 5.376C73.2464 5.78133 72.9797 6.352 72.8624 7.088H77.5504C77.4864 6.33067 77.2624 5.75467 76.8784 5.36C76.505 4.96533 75.9824 4.768 75.3104 4.768ZM84.4295 3.76C84.6962 3.76 84.9415 3.792 85.1655 3.856L85.1335 5.04C84.8882 4.95467 84.6055 4.912 84.2855 4.912C83.5068 4.912 82.9255 5.15733 82.5415 5.648C82.1682 6.128 81.9815 6.71467 81.9815 7.408V12H80.6855V6.208C80.6855 5.376 80.6428 4.624 80.5575 3.952H81.7895L81.9175 5.44C82.1202 4.896 82.4455 4.48 82.8935 4.192C83.3415 3.904 83.8535 3.76 84.4295 3.76ZM89.1243 12.112C87.7696 12.112 86.6976 11.7653 85.9083 11.072L86.3403 10.112C86.7776 10.4533 87.2203 10.6987 87.6683 10.848C88.1163 10.9973 88.6176 11.072 89.1723 11.072C89.7803 11.072 90.2389 10.9707 90.5483 10.768C90.8683 10.5547 91.0283 10.2507 91.0283 9.856C91.0283 9.536 90.9216 9.28 90.7083 9.088C90.4949 8.896 90.1429 8.74667 89.6523 8.64L88.2923 8.32C87.6203 8.17067 87.0976 7.904 86.7243 7.52C86.3616 7.136 86.1803 6.67733 86.1803 6.144C86.1803 5.44 86.4629 4.86933 87.0283 4.432C87.5936 3.984 88.3403 3.76 89.2682 3.76C89.8336 3.76 90.3669 3.85067 90.8683 4.032C91.3696 4.21333 91.7909 4.47467 92.1323 4.816L91.7003 5.76C90.9429 5.13067 90.1323 4.816 89.2682 4.816C88.6923 4.816 88.2443 4.928 87.9243 5.152C87.6149 5.36533 87.4603 5.66933 87.4603 6.064C87.4603 6.39467 87.5563 6.656 87.7483 6.848C87.9509 7.04 88.2709 7.18933 88.7083 7.296L90.0683 7.632C90.8149 7.80267 91.3696 8.06933 91.7323 8.432C92.0949 8.784 92.2763 9.248 92.2763 9.824C92.2763 10.5173 91.9936 11.072 91.4283 11.488C90.8629 11.904 90.0949 12.112 89.1243 12.112ZM101.078 7.936H95.1738C95.1844 8.96 95.4191 9.73333 95.8778 10.256C96.3471 10.7787 97.0244 11.04 97.9098 11.04C98.8484 11.04 99.7124 10.7253 100.502 10.096L100.934 11.04C100.582 11.3707 100.128 11.632 99.5738 11.824C99.0298 12.016 98.4698 12.112 97.8938 12.112C96.6351 12.112 95.6484 11.744 94.9338 11.008C94.2191 10.2613 93.8618 9.24267 93.8618 7.952C93.8618 7.13067 94.0218 6.40533 94.3418 5.776C94.6618 5.136 95.1098 4.64 95.6858 4.288C96.2618 3.936 96.9178 3.76 97.6538 3.76C98.7204 3.76 99.5578 4.112 100.166 4.816C100.774 5.50933 101.078 6.46933 101.078 7.696V7.936ZM97.6698 4.768C96.9978 4.768 96.4484 4.97067 96.0218 5.376C95.6058 5.78133 95.3391 6.352 95.2218 7.088H99.9098C99.8458 6.33067 99.6218 5.75467 99.2378 5.36C98.8644 4.96533 98.3418 4.768 97.6698 4.768ZM110.993 12.128C109.211 12.128 107.793 11.648 106.737 10.688L107.233 9.68C107.798 10.16 108.374 10.5013 108.961 10.704C109.547 10.9067 110.23 11.008 111.009 11.008C111.926 11.008 112.63 10.832 113.121 10.48C113.622 10.1173 113.873 9.61067 113.873 8.96C113.873 8.576 113.75 8.26667 113.505 8.032C113.27 7.78667 112.955 7.59467 112.561 7.456C112.177 7.31733 111.659 7.17333 111.009 7.024C110.134 6.832 109.414 6.624 108.849 6.4C108.283 6.176 107.825 5.856 107.473 5.44C107.121 5.01333 106.945 4.45867 106.945 3.776C106.945 3.12533 107.115 2.55467 107.457 2.064C107.798 1.56267 108.278 1.17333 108.897 0.896C109.526 0.618666 110.257 0.48 111.089 0.48C111.878 0.48 112.614 0.602666 113.297 0.848C113.979 1.09333 114.555 1.45067 115.025 1.92L114.513 2.928C113.979 2.46933 113.435 2.13333 112.881 1.92C112.337 1.70667 111.739 1.6 111.089 1.6C110.203 1.6 109.51 1.792 109.009 2.176C108.507 2.54933 108.257 3.06667 108.257 3.728C108.257 4.304 108.475 4.736 108.913 5.024C109.35 5.312 110.022 5.56267 110.929 5.776C111.91 6.01067 112.678 6.22933 113.233 6.432C113.798 6.624 114.267 6.92267 114.641 7.328C115.014 7.72267 115.201 8.25067 115.201 8.912C115.201 9.552 115.03 10.1173 114.689 10.608C114.347 11.088 113.857 11.4613 113.217 11.728C112.587 11.9947 111.846 12.128 110.993 12.128ZM121.202 3.76C123.132 3.76 124.098 4.82133 124.098 6.944V12H122.802V7.008C122.802 6.26133 122.652 5.71733 122.354 5.376C122.055 5.024 121.586 4.848 120.946 4.848C120.199 4.848 119.602 5.07733 119.154 5.536C118.706 5.99467 118.482 6.61333 118.482 7.392V12H117.186V0.223999H118.482V5.264C118.738 4.77333 119.1 4.4 119.57 4.144C120.05 3.888 120.594 3.76 121.202 3.76ZM129.873 12.112C129.116 12.112 128.449 11.9413 127.873 11.6C127.297 11.2587 126.849 10.7733 126.529 10.144C126.22 9.51467 126.065 8.77867 126.065 7.936C126.065 7.09333 126.22 6.35733 126.529 5.728C126.849 5.09867 127.297 4.61333 127.873 4.272C128.449 3.93067 129.116 3.76 129.873 3.76C130.63 3.76 131.297 3.93067 131.873 4.272C132.449 4.61333 132.892 5.09867 133.201 5.728C133.521 6.35733 133.681 7.09333 133.681 7.936C133.681 8.77867 133.521 9.51467 133.201 10.144C132.892 10.7733 132.449 11.2587 131.873 11.6C131.297 11.9413 130.63 12.112 129.873 12.112ZM129.873 11.04C130.673 11.04 131.286 10.7787 131.713 10.256C132.14 9.72267 132.353 8.94933 132.353 7.936C132.353 6.95467 132.134 6.19733 131.697 5.664C131.26 5.12 130.652 4.848 129.873 4.848C129.084 4.848 128.47 5.12 128.033 5.664C127.596 6.19733 127.377 6.95467 127.377 7.936C127.377 8.94933 127.59 9.72267 128.017 10.256C128.454 10.7787 129.073 11.04 129.873 11.04ZM139.717 3.76C140.421 3.76 141.045 3.936 141.589 4.288C142.133 4.64 142.554 5.136 142.853 5.776C143.152 6.40533 143.301 7.136 143.301 7.968C143.301 8.8 143.152 9.53067 142.853 10.16C142.554 10.7787 142.133 11.2587 141.589 11.6C141.056 11.9413 140.432 12.112 139.717 12.112C139.088 12.112 138.538 11.9733 138.069 11.696C137.6 11.4187 137.242 11.024 136.997 10.512V15.456H135.701V6.208C135.701 5.376 135.658 4.624 135.573 3.952H136.805L136.933 5.504C137.157 4.94933 137.509 4.52267 137.989 4.224C138.48 3.91467 139.056 3.76 139.717 3.76ZM139.477 11.04C140.266 11.04 140.874 10.7733 141.301 10.24C141.738 9.70667 141.957 8.94933 141.957 7.968C141.957 6.98667 141.738 6.224 141.301 5.68C140.864 5.12533 140.256 4.848 139.477 4.848C138.677 4.848 138.064 5.11467 137.637 5.648C137.21 6.18133 136.997 6.944 136.997 7.936C136.997 8.928 137.21 9.696 137.637 10.24C138.064 10.7733 138.677 11.04 139.477 11.04ZM156.555 3.952V12H155.275V10.544C155.04 11.0453 154.683 11.4347 154.203 11.712C153.733 11.9787 153.184 12.112 152.555 12.112C151.84 12.112 151.211 11.9413 150.667 11.6C150.133 11.2587 149.717 10.7787 149.419 10.16C149.131 9.53067 148.987 8.8 148.987 7.968C148.987 7.136 149.136 6.40533 149.435 5.776C149.733 5.136 150.149 4.64 150.683 4.288C151.227 3.936 151.851 3.76 152.555 3.76C153.184 3.76 153.733 3.89867 154.203 4.176C154.672 4.45333 155.029 4.84267 155.275 5.344V3.952H156.555ZM152.811 11.04C153.6 11.04 154.208 10.7733 154.635 10.24C155.061 9.696 155.275 8.928 155.275 7.936C155.275 6.944 155.061 6.18133 154.635 5.648C154.208 5.11467 153.6 4.848 152.811 4.848C152.021 4.848 151.403 5.12533 150.955 5.68C150.517 6.224 150.299 6.98667 150.299 7.968C150.299 8.94933 150.517 9.70667 150.955 10.24C151.392 10.7733 152.011 11.04 152.811 11.04ZM159.061 0.223999H160.357V12H159.061V0.223999ZM162.873 0.223999H164.169V12H162.873V0.223999ZM174.601 3.76C174.868 3.76 175.113 3.792 175.337 3.856L175.305 5.04C175.06 4.95467 174.777 4.912 174.457 4.912C173.679 4.912 173.097 5.15733 172.713 5.648C172.34 6.128 172.153 6.71467 172.153 7.408V12H170.857V6.208C170.857 5.376 170.815 4.624 170.729 3.952H171.961L172.089 5.44C172.292 4.896 172.617 4.48 173.065 4.192C173.513 3.904 174.025 3.76 174.601 3.76ZM176.654 3.952H177.95V12H176.654V3.952ZM178.11 0.544V2.016H176.526V0.544H178.11ZM187.635 3.952V11.936C187.635 13.1307 187.325 14.032 186.707 14.64C186.099 15.2587 185.197 15.568 184.003 15.568C182.776 15.568 181.72 15.2907 180.835 14.736L181.059 13.68C181.571 13.968 182.051 14.176 182.499 14.304C182.957 14.432 183.459 14.496 184.003 14.496C184.781 14.496 185.368 14.288 185.763 13.872C186.157 13.4667 186.355 12.8587 186.355 12.048V10.144C186.109 10.656 185.747 11.056 185.267 11.344C184.797 11.6213 184.237 11.76 183.587 11.76C182.883 11.76 182.253 11.5947 181.699 11.264C181.155 10.9333 180.733 10.464 180.435 9.856C180.136 9.248 179.987 8.54933 179.987 7.76C179.987 6.97067 180.136 6.272 180.435 5.664C180.733 5.056 181.155 4.58667 181.699 4.256C182.253 3.92533 182.883 3.76 183.587 3.76C184.227 3.76 184.781 3.89867 185.251 4.176C185.731 4.45333 186.093 4.84267 186.339 5.344V3.952H187.635ZM183.843 10.672C184.621 10.672 185.229 10.416 185.667 9.904C186.115 9.38133 186.339 8.66667 186.339 7.76C186.339 6.85333 186.115 6.144 185.667 5.632C185.229 5.10933 184.621 4.848 183.843 4.848C183.053 4.848 182.429 5.10933 181.971 5.632C181.523 6.144 181.299 6.85333 181.299 7.76C181.299 8.66667 181.523 9.38133 181.971 9.904C182.429 10.416 183.053 10.672 183.843 10.672ZM194.139 3.76C196.07 3.76 197.035 4.82133 197.035 6.944V12H195.739V7.008C195.739 6.26133 195.59 5.71733 195.291 5.376C194.992 5.024 194.523 4.848 193.883 4.848C193.136 4.848 192.539 5.07733 192.091 5.536C191.643 5.99467 191.419 6.61333 191.419 7.392V12H190.123V0.223999H191.419V5.264C191.675 4.77333 192.038 4.4 192.507 4.144C192.987 3.888 193.531 3.76 194.139 3.76ZM201.21 4.976V9.376C201.21 9.97333 201.333 10.3947 201.578 10.64C201.824 10.8747 202.17 10.992 202.618 10.992C202.917 10.992 203.205 10.944 203.482 10.848V11.952C203.152 12.0587 202.778 12.112 202.362 12.112C201.594 12.112 200.992 11.8987 200.554 11.472C200.128 11.0347 199.914 10.3947 199.914 9.552V4.976H198.346V3.952H199.914V1.888L201.21 1.424V3.952H203.514V4.976H201.21ZM207.796 12.112C206.441 12.112 205.369 11.7653 204.58 11.072L205.012 10.112C205.449 10.4533 205.892 10.6987 206.34 10.848C206.788 10.9973 207.289 11.072 207.844 11.072C208.452 11.072 208.911 10.9707 209.22 10.768C209.54 10.5547 209.7 10.2507 209.7 9.856C209.7 9.536 209.593 9.28 209.38 9.088C209.167 8.896 208.815 8.74667 208.324 8.64L206.964 8.32C206.292 8.17067 205.769 7.904 205.396 7.52C205.033 7.136 204.852 6.67733 204.852 6.144C204.852 5.44 205.135 4.86933 205.7 4.432C206.265 3.984 207.012 3.76 207.94 3.76C208.505 3.76 209.039 3.85067 209.54 4.032C210.041 4.21333 210.463 4.47467 210.804 4.816L210.372 5.76C209.615 5.13067 208.804 4.816 207.94 4.816C207.364 4.816 206.916 4.928 206.596 5.152C206.287 5.36533 206.132 5.66933 206.132 6.064C206.132 6.39467 206.228 6.656 206.42 6.848C206.623 7.04 206.943 7.18933 207.38 7.296L208.74 7.632C209.487 7.80267 210.041 8.06933 210.404 8.432C210.767 8.784 210.948 9.248 210.948 9.824C210.948 10.5173 210.665 11.072 210.1 11.488C209.535 11.904 208.767 12.112 207.796 12.112ZM220.93 3.76C221.196 3.76 221.442 3.792 221.666 3.856L221.634 5.04C221.388 4.95467 221.106 4.912 220.786 4.912C220.007 4.912 219.426 5.15733 219.042 5.648C218.668 6.128 218.482 6.71467 218.482 7.408V12H217.186V6.208C217.186 5.376 217.143 4.624 217.058 3.952H218.289L218.418 5.44C218.62 4.896 218.946 4.48 219.394 4.192C219.842 3.904 220.354 3.76 220.93 3.76ZM229.562 7.936H223.658C223.669 8.96 223.903 9.73333 224.362 10.256C224.831 10.7787 225.509 11.04 226.394 11.04C227.333 11.04 228.197 10.7253 228.986 10.096L229.418 11.04C229.066 11.3707 228.613 11.632 228.058 11.824C227.514 12.016 226.954 12.112 226.378 12.112C225.119 12.112 224.133 11.744 223.418 11.008C222.703 10.2613 222.346 9.24267 222.346 7.952C222.346 7.13067 222.506 6.40533 222.826 5.776C223.146 5.136 223.594 4.64 224.17 4.288C224.746 3.936 225.402 3.76 226.138 3.76C227.205 3.76 228.042 4.112 228.65 4.816C229.258 5.50933 229.562 6.46933 229.562 7.696V7.936ZM226.154 4.768C225.482 4.768 224.933 4.97067 224.506 5.376C224.09 5.78133 223.823 6.352 223.706 7.088H228.394C228.33 6.33067 228.106 5.75467 227.722 5.36C227.349 4.96533 226.826 4.768 226.154 4.768ZM234.249 12.112C232.895 12.112 231.823 11.7653 231.033 11.072L231.465 10.112C231.903 10.4533 232.345 10.6987 232.793 10.848C233.241 10.9973 233.743 11.072 234.297 11.072C234.905 11.072 235.364 10.9707 235.673 10.768C235.993 10.5547 236.153 10.2507 236.153 9.856C236.153 9.536 236.047 9.28 235.833 9.088C235.62 8.896 235.268 8.74667 234.777 8.64L233.417 8.32C232.745 8.17067 232.223 7.904 231.849 7.52C231.487 7.136 231.305 6.67733 231.305 6.144C231.305 5.44 231.588 4.86933 232.153 4.432C232.719 3.984 233.465 3.76 234.393 3.76C234.959 3.76 235.492 3.85067 235.993 4.032C236.495 4.21333 236.916 4.47467 237.257 4.816L236.825 5.76C236.068 5.13067 235.257 4.816 234.393 4.816C233.817 4.816 233.369 4.928 233.049 5.152C232.74 5.36533 232.585 5.66933 232.585 6.064C232.585 6.39467 232.681 6.656 232.873 6.848C233.076 7.04 233.396 7.18933 233.833 7.296L235.193 7.632C235.94 7.80267 236.495 8.06933 236.857 8.432C237.22 8.784 237.401 9.248 237.401 9.824C237.401 10.5173 237.119 11.072 236.553 11.488C235.988 11.904 235.22 12.112 234.249 12.112ZM246.203 7.936H240.299C240.309 8.96 240.544 9.73333 241.003 10.256C241.472 10.7787 242.149 11.04 243.035 11.04C243.973 11.04 244.837 10.7253 245.627 10.096L246.059 11.04C245.707 11.3707 245.253 11.632 244.699 11.824C244.155 12.016 243.595 12.112 243.019 12.112C241.76 12.112 240.773 11.744 240.059 11.008C239.344 10.2613 238.987 9.24267 238.987 7.952C238.987 7.13067 239.147 6.40533 239.467 5.776C239.787 5.136 240.235 4.64 240.811 4.288C241.387 3.936 242.043 3.76 242.779 3.76C243.845 3.76 244.683 4.112 245.291 4.816C245.899 5.50933 246.203 6.46933 246.203 7.696V7.936ZM242.795 4.768C242.123 4.768 241.573 4.97067 241.147 5.376C240.731 5.78133 240.464 6.352 240.347 7.088H245.035C244.971 6.33067 244.747 5.75467 244.363 5.36C243.989 4.96533 243.467 4.768 242.795 4.768ZM251.914 3.76C252.181 3.76 252.426 3.792 252.65 3.856L252.618 5.04C252.373 4.95467 252.09 4.912 251.77 4.912C250.991 4.912 250.41 5.15733 250.026 5.648C249.653 6.128 249.466 6.71467 249.466 7.408V12H248.17V6.208C248.17 5.376 248.127 4.624 248.042 3.952H249.274L249.402 5.44C249.605 4.896 249.93 4.48 250.378 4.192C250.826 3.904 251.338 3.76 251.914 3.76ZM261.523 3.968L258.051 12H256.819L253.395 3.968H254.755L257.475 10.592L260.227 3.968H261.523ZM269.593 7.936H263.689C263.7 8.96 263.935 9.73333 264.393 10.256C264.863 10.7787 265.54 11.04 266.425 11.04C267.364 11.04 268.228 10.7253 269.017 10.096L269.449 11.04C269.097 11.3707 268.644 11.632 268.089 11.824C267.545 12.016 266.985 12.112 266.409 12.112C265.151 12.112 264.164 11.744 263.449 11.008C262.735 10.2613 262.377 9.24267 262.377 7.952C262.377 7.13067 262.537 6.40533 262.857 5.776C263.177 5.136 263.625 4.64 264.201 4.288C264.777 3.936 265.433 3.76 266.169 3.76C267.236 3.76 268.073 4.112 268.681 4.816C269.289 5.50933 269.593 6.46933 269.593 7.696V7.936ZM266.185 4.768C265.513 4.768 264.964 4.97067 264.537 5.376C264.121 5.78133 263.855 6.352 263.737 7.088H268.425C268.361 6.33067 268.137 5.75467 267.753 5.36C267.38 4.96533 266.857 4.768 266.185 4.768ZM278.649 0.223999V12H277.369V10.544C277.134 11.0453 276.777 11.4347 276.297 11.712C275.827 11.9787 275.278 12.112 274.649 12.112C273.945 12.112 273.321 11.936 272.777 11.584C272.243 11.232 271.827 10.7413 271.529 10.112C271.23 9.472 271.081 8.736 271.081 7.904C271.081 7.072 271.225 6.34667 271.513 5.728C271.811 5.09867 272.233 4.61333 272.777 4.272C273.321 3.93067 273.945 3.76 274.649 3.76C275.278 3.76 275.827 3.89867 276.297 4.176C276.766 4.44267 277.118 4.82133 277.353 5.312V0.223999H278.649ZM274.905 11.04C275.694 11.04 276.302 10.7733 276.729 10.24C277.155 9.696 277.369 8.928 277.369 7.936C277.369 6.95467 277.155 6.19733 276.729 5.664C276.302 5.12 275.694 4.848 274.905 4.848C274.115 4.848 273.497 5.11467 273.049 5.648C272.611 6.18133 272.393 6.93333 272.393 7.904C272.393 8.896 272.611 9.66933 273.049 10.224C273.497 10.768 274.115 11.04 274.905 11.04Z" fill="white" fill-opacity="0.6"/>
</svg>
